<svg width="224" height="293" viewBox="0 0 224 293" fill="none" xmlns="http://www.w3.org/2000/svg">
<rect width="224" height="292.218" rx="4" fill="url(#paint0_linear_1154_17125)"/>
<path opacity="0.16" d="M0 4.00001C0 1.79087 1.79086 0 4 0H17.3091V292.218H4C1.79086 292.218 0 290.427 0 288.218V4.00001Z" fill="#06122C"/>
<path d="M156.8 214.836C160.174 214.836 162.947 212.091 162.543 208.742C161.88 203.243 160.323 197.876 157.92 192.856C154.635 185.994 149.855 179.956 143.93 175.185C138.004 170.413 131.085 167.031 123.681 165.285C116.276 163.54 108.575 163.476 101.142 165.098C93.71 166.721 86.7357 169.988 80.7323 174.661C74.7288 179.333 69.8488 185.292 66.4511 192.098C63.0533 198.905 61.2241 206.386 61.0981 213.992C61.0058 219.557 61.8268 225.085 63.5155 230.359C64.5443 233.573 68.2088 234.912 71.2758 233.506C74.3428 232.1 75.6376 228.479 74.7313 225.229C73.7328 221.649 73.2526 217.933 73.3146 214.195C73.4104 208.414 74.8005 202.728 77.3828 197.555C79.9651 192.382 83.6739 187.854 88.2365 184.303C92.7992 180.752 98.0996 178.268 103.748 177.035C109.397 175.802 115.25 175.851 120.877 177.177C126.505 178.504 131.763 181.075 136.267 184.701C140.77 188.327 144.403 192.916 146.899 198.131C148.513 201.503 149.625 205.081 150.21 208.752C150.74 212.084 153.426 214.836 156.8 214.836Z" fill="#506FF4"/>
<circle cx="138.473" cy="131.345" r="12.2182" fill="#FFC300"/>
<rect x="65.1636" y="149.673" width="96.7273" height="12.2182" rx="6.10909" fill="#65CED6"/>
<g filter="url(#filter0_d_1154_17125)">
<path d="M44.3768 62.264C43.1448 62.264 42.0008 62.048 40.9448 61.616C39.8888 61.168 38.9528 60.552 38.1368 59.768C37.3368 58.984 36.7128 58.064 36.2648 57.008C35.8328 55.952 35.6168 54.816 35.6168 53.6C35.6168 52.368 35.8328 51.232 36.2648 50.192C36.7128 49.136 37.3368 48.216 38.1368 47.432C38.9528 46.648 39.8888 46.04 40.9448 45.608C42.0008 45.16 43.1448 44.936 44.3768 44.936C45.2568 44.936 46.1128 45.064 46.9448 45.32C47.7768 45.56 48.5528 45.92 49.2728 46.4C49.9928 46.864 50.5928 47.424 51.0728 48.08L48.6968 50.36C48.1368 49.608 47.4888 49.048 46.7528 48.68C46.0168 48.296 45.2248 48.104 44.3768 48.104C43.6568 48.104 42.9848 48.24 42.3608 48.512C41.7528 48.784 41.2168 49.176 40.7528 49.688C40.2888 50.184 39.9288 50.768 39.6728 51.44C39.4168 52.096 39.2888 52.816 39.2888 53.6C39.2888 54.384 39.4168 55.112 39.6728 55.784C39.9288 56.44 40.2888 57.024 40.7528 57.536C41.2168 58.032 41.7528 58.416 42.3608 58.688C42.9848 58.96 43.6568 59.096 44.3768 59.096C45.2248 59.096 46.0168 58.904 46.7528 58.52C47.4888 58.136 48.1368 57.576 48.6968 56.84L51.0728 59.12C50.5928 59.76 49.9928 60.32 49.2728 60.8C48.5528 61.28 47.7768 61.648 46.9448 61.904C46.1128 62.144 45.2568 62.264 44.3768 62.264ZM58.7536 62.216C57.5536 62.216 56.4816 61.944 55.5376 61.4C54.5936 60.856 53.8416 60.104 53.2816 59.144C52.7376 58.184 52.4656 57.104 52.4656 55.904C52.4656 54.704 52.7376 53.632 53.2816 52.688C53.8416 51.728 54.5936 50.976 55.5376 50.432C56.4816 49.872 57.5456 49.592 58.7296 49.592C59.9296 49.592 60.9936 49.872 61.9216 50.432C62.8656 50.976 63.6096 51.728 64.1536 52.688C64.7136 53.632 64.9936 54.704 64.9936 55.904C64.9936 57.104 64.7136 58.184 64.1536 59.144C63.6096 60.088 62.8656 60.84 61.9216 61.4C60.9936 61.944 59.9376 62.216 58.7536 62.216ZM58.7296 59.408C59.3216 59.408 59.8416 59.264 60.2896 58.976C60.7376 58.672 61.0896 58.256 61.3456 57.728C61.6016 57.184 61.7296 56.576 61.7296 55.904C61.7296 55.216 61.6016 54.616 61.3456 54.104C61.0896 53.576 60.7376 53.16 60.2896 52.856C59.8416 52.552 59.3296 52.4 58.7536 52.4C58.1776 52.4 57.6576 52.552 57.1936 52.856C56.7296 53.16 56.3696 53.576 56.1136 54.104C55.8736 54.632 55.7536 55.232 55.7536 55.904C55.7536 56.576 55.8736 57.184 56.1136 57.728C56.3696 58.256 56.7296 58.672 57.1936 58.976C57.6576 59.264 58.1696 59.408 58.7296 59.408ZM67.6192 62V49.784H70.9792V51.776C71.4432 51.056 72.0032 50.512 72.6592 50.144C73.3152 49.776 74.0432 49.592 74.8432 49.592C75.6432 49.592 76.3552 49.776 76.9792 50.144C77.6032 50.496 78.0912 50.992 78.4432 51.632C78.7952 52.272 78.9712 53.008 78.9712 53.84V62H75.6352V54.824C75.6352 54.024 75.4192 53.392 74.9872 52.928C74.5552 52.464 73.9872 52.232 73.2832 52.232C72.8192 52.232 72.3872 52.336 71.9872 52.544C71.6032 52.752 71.2672 53.056 70.9792 53.456V62H67.6192ZM87.3457 62.24C86.0017 62.24 84.9857 61.928 84.2977 61.304C83.6097 60.68 83.2657 59.76 83.2657 58.544V52.4H80.8417V49.784H83.2657V46.4L86.6017 45.704V49.784H89.9377V52.4H86.6017V57.848C86.6017 58.408 86.7297 58.808 86.9857 59.048C87.2417 59.288 87.6657 59.408 88.2577 59.408C88.4977 59.408 88.7297 59.392 88.9537 59.36C89.1937 59.312 89.4977 59.232 89.8657 59.12V61.88C89.5137 61.992 89.0977 62.08 88.6177 62.144C88.1537 62.208 87.7297 62.24 87.3457 62.24ZM92.2051 62V49.784H95.5651V52.496C95.9331 51.504 96.3971 50.768 96.9571 50.288C97.5171 49.808 98.1651 49.568 98.9011 49.568C99.1571 49.568 99.3731 49.584 99.5491 49.616C99.7251 49.648 99.9251 49.72 100.149 49.832V52.736C99.9091 52.624 99.6451 52.536 99.3571 52.472C99.0691 52.408 98.7731 52.376 98.4691 52.376C97.8611 52.376 97.3011 52.536 96.7891 52.856C96.2771 53.176 95.8691 53.6 95.5651 54.128V62H92.2051ZM103.622 67.256C103.142 67.256 102.646 67.192 102.134 67.064V64.232C102.278 64.248 102.446 64.264 102.638 64.28C102.846 64.312 103.046 64.328 103.238 64.328C103.75 64.328 104.158 64.216 104.462 63.992C104.766 63.768 105.022 63.448 105.23 63.032L105.59 62.168L101.03 49.784H104.75L107.486 58.184L110.558 49.784H114.182L108.542 63.704C108.19 64.568 107.798 65.264 107.366 65.792C106.934 66.32 106.414 66.696 105.806 66.92C105.214 67.144 104.486 67.256 103.622 67.256ZM115.683 56.552V53.744H124.299V56.552H115.683ZM127.51 62V45.2H135.382C136.566 45.2 137.59 45.432 138.454 45.896C139.318 46.36 139.982 47 140.446 47.816C140.926 48.616 141.166 49.544 141.166 50.6C141.166 51.608 140.926 52.512 140.446 53.312C139.982 54.112 139.318 54.744 138.454 55.208C137.59 55.656 136.566 55.88 135.382 55.88H131.062V62H127.51ZM131.062 53.024H134.782C135.71 53.024 136.406 52.8 136.87 52.352C137.35 51.888 137.59 51.296 137.59 50.576C137.59 49.856 137.35 49.272 136.87 48.824C136.406 48.376 135.718 48.152 134.806 48.152H131.062V53.024ZM148.662 62.24C147.478 62.24 146.406 61.96 145.446 61.4C144.486 60.84 143.718 60.088 143.142 59.144C142.582 58.184 142.302 57.104 142.302 55.904C142.302 54.704 142.566 53.632 143.094 52.688C143.638 51.744 144.366 50.992 145.278 50.432C146.19 49.872 147.222 49.592 148.374 49.592C149.526 49.592 150.542 49.872 151.422 50.432C152.318 50.976 153.014 51.728 153.51 52.688C154.022 53.648 154.278 54.744 154.278 55.976V56.744H145.59C145.702 57.288 145.902 57.776 146.19 58.208C146.494 58.624 146.87 58.952 147.318 59.192C147.782 59.416 148.278 59.528 148.806 59.528C149.35 59.528 149.854 59.44 150.318 59.264C150.782 59.072 151.166 58.808 151.47 58.472L153.654 60.368C152.886 61.024 152.102 61.504 151.302 61.808C150.518 62.096 149.638 62.24 148.662 62.24ZM145.614 54.776H151.158C151.046 54.264 150.854 53.824 150.582 53.456C150.326 53.072 150.006 52.776 149.622 52.568C149.238 52.344 148.814 52.232 148.35 52.232C147.886 52.232 147.462 52.336 147.078 52.544C146.71 52.752 146.398 53.048 146.142 53.432C145.902 53.8 145.726 54.248 145.614 54.776ZM161.859 62.096C160.851 62.096 159.931 61.816 159.099 61.256C158.267 60.696 157.603 59.952 157.107 59.024C156.627 58.08 156.387 57.032 156.387 55.88C156.387 54.728 156.643 53.688 157.155 52.76C157.667 51.832 158.347 51.088 159.195 50.528C160.059 49.968 161.027 49.688 162.099 49.688C162.771 49.688 163.395 49.824 163.971 50.096C164.547 50.352 165.051 50.728 165.483 51.224V44.84L168.843 44.312V62H165.531V60.416C165.115 60.928 164.579 61.336 163.923 61.64C163.283 61.944 162.595 62.096 161.859 62.096ZM162.915 59.312C163.443 59.312 163.923 59.216 164.355 59.024C164.787 58.816 165.163 58.536 165.483 58.184V53.576C165.163 53.224 164.779 52.952 164.331 52.76C163.899 52.568 163.427 52.472 162.915 52.472C162.307 52.472 161.755 52.624 161.259 52.928C160.779 53.216 160.395 53.616 160.107 54.128C159.819 54.64 159.675 55.232 159.675 55.904C159.675 56.544 159.819 57.128 160.107 57.656C160.395 58.168 160.779 58.576 161.259 58.88C161.755 59.168 162.307 59.312 162.915 59.312ZM172.01 62V49.784H175.346V62H172.01ZM173.69 47.624C173.146 47.624 172.682 47.44 172.298 47.072C171.914 46.688 171.722 46.224 171.722 45.68C171.722 45.136 171.914 44.68 172.298 44.312C172.682 43.928 173.146 43.736 173.69 43.736C174.234 43.736 174.69 43.928 175.058 44.312C175.442 44.696 175.634 45.152 175.634 45.68C175.634 46.208 175.442 46.664 175.058 47.048C174.69 47.432 174.234 47.624 173.69 47.624ZM182.197 62.192C181.365 62.192 180.629 62.04 179.989 61.736C179.349 61.416 178.845 60.984 178.477 60.44C178.125 59.88 177.949 59.232 177.949 58.496C177.949 57.744 178.133 57.104 178.501 56.576C178.885 56.048 179.429 55.64 180.133 55.352C180.837 55.064 181.677 54.92 182.653 54.92C183.165 54.92 183.669 54.976 184.165 55.088C184.661 55.184 185.173 55.352 185.701 55.592V54.44C185.701 53.736 185.485 53.216 185.053 52.88C184.637 52.528 183.989 52.352 183.109 52.352C182.629 52.352 182.101 52.424 181.525 52.568C180.965 52.712 180.325 52.936 179.605 53.24L178.453 50.888C180.341 50.024 182.125 49.592 183.805 49.592C185.453 49.592 186.733 49.992 187.645 50.792C188.557 51.576 189.013 52.688 189.013 54.128V62H185.701V60.848C185.173 61.312 184.621 61.656 184.045 61.88C183.485 62.088 182.869 62.192 182.197 62.192ZM181.045 58.424C181.045 58.904 181.237 59.28 181.621 59.552C182.005 59.808 182.525 59.936 183.181 59.936C183.661 59.936 184.109 59.872 184.525 59.744C184.941 59.6 185.333 59.4 185.701 59.144V57.368C185.317 57.24 184.925 57.144 184.525 57.08C184.125 57 183.709 56.96 183.277 56.96C182.573 56.96 182.021 57.088 181.621 57.344C181.237 57.6 181.045 57.96 181.045 58.424Z" fill="white"/>
</g>
<path d="M63.3097 280V273H66.1397C66.5664 273 66.9364 273.073 67.2497 273.22C67.5697 273.367 67.8164 273.573 67.9897 273.84C68.1631 274.107 68.2497 274.42 68.2497 274.78C68.2497 275.167 68.1364 275.5 67.9097 275.78C67.6897 276.053 67.3897 276.247 67.0097 276.36C67.4764 276.467 67.8431 276.67 68.1097 276.97C68.3831 277.263 68.5197 277.627 68.5197 278.06C68.5197 278.447 68.4264 278.787 68.2397 279.08C68.0531 279.373 67.7897 279.6 67.4497 279.76C67.1097 279.92 66.7097 280 66.2497 280H63.3097ZM64.0797 276.06H66.0797C66.5064 276.06 66.8464 275.953 67.0997 275.74C67.3531 275.52 67.4797 275.227 67.4797 274.86C67.4797 274.493 67.3531 274.203 67.0997 273.99C66.8464 273.77 66.5064 273.66 66.0797 273.66H64.0797V276.06ZM64.0797 279.34H66.1697C66.6431 279.34 67.0231 279.22 67.3097 278.98C67.5964 278.733 67.7397 278.41 67.7397 278.01C67.7397 277.61 67.5964 277.29 67.3097 277.05C67.0297 276.81 66.6497 276.69 66.1697 276.69H64.0797V279.34ZM69.7227 282.19C69.5694 282.19 69.4127 282.167 69.2527 282.12V281.47C69.3194 281.483 69.3894 281.493 69.4627 281.5C69.536 281.507 69.5994 281.51 69.6527 281.51C69.8394 281.51 69.9927 281.46 70.1127 281.36C70.2394 281.26 70.346 281.103 70.4327 280.89L70.7927 280L68.9127 275.12H69.7227L71.2027 279.13L72.7727 275.12H73.5827L71.1227 281.11C71.016 281.37 70.8994 281.58 70.7727 281.74C70.646 281.9 70.4994 282.013 70.3327 282.08C70.166 282.153 69.9627 282.19 69.7227 282.19ZM79.7971 280.11C79.2971 280.11 78.8305 280.02 78.3971 279.84C77.9705 279.653 77.5938 279.397 77.2671 279.07C76.9405 278.737 76.6871 278.353 76.5071 277.92C76.3271 277.48 76.2371 277.007 76.2371 276.5C76.2371 275.993 76.3271 275.523 76.5071 275.09C76.6871 274.65 76.9405 274.267 77.2671 273.94C77.5938 273.607 77.9705 273.35 78.3971 273.17C78.8305 272.983 79.2971 272.89 79.7971 272.89C80.1438 272.89 80.4738 272.937 80.7871 273.03C81.1071 273.117 81.4071 273.247 81.6871 273.42C81.9671 273.587 82.2171 273.793 82.4371 274.04L81.9271 274.57C81.6671 274.257 81.3471 274.017 80.9671 273.85C80.5938 273.677 80.2038 273.59 79.7971 273.59C79.4038 273.59 79.0371 273.663 78.6971 273.81C78.3571 273.957 78.0605 274.163 77.8071 274.43C77.5605 274.697 77.3671 275.007 77.2271 275.36C77.0871 275.707 77.0171 276.087 77.0171 276.5C77.0171 276.907 77.0871 277.287 77.2271 277.64C77.3671 277.993 77.5605 278.303 77.8071 278.57C78.0605 278.837 78.3571 279.043 78.6971 279.19C79.0371 279.337 79.4038 279.41 79.7971 279.41C80.2038 279.41 80.5938 279.323 80.9671 279.15C81.3471 278.977 81.6671 278.737 81.9271 278.43L82.4371 278.96C82.2171 279.207 81.9671 279.417 81.6871 279.59C81.4071 279.757 81.1071 279.887 80.7871 279.98C80.4738 280.067 80.1438 280.11 79.7971 280.11ZM85.4965 280.08C85.0432 280.08 84.6365 279.97 84.2765 279.75C83.9165 279.53 83.6332 279.23 83.4265 278.85C83.2199 278.47 83.1165 278.04 83.1165 277.56C83.1165 277.08 83.2199 276.65 83.4265 276.27C83.6332 275.89 83.9165 275.59 84.2765 275.37C84.6365 275.15 85.0432 275.04 85.4965 275.04C85.9432 275.04 86.3432 275.15 86.6965 275.37C87.0565 275.59 87.3399 275.89 87.5465 276.27C87.7532 276.65 87.8565 277.08 87.8565 277.56C87.8565 278.04 87.7532 278.47 87.5465 278.85C87.3399 279.23 87.0565 279.53 86.6965 279.75C86.3432 279.97 85.9432 280.08 85.4965 280.08ZM85.4865 279.44C85.8065 279.44 86.0899 279.36 86.3365 279.2C86.5832 279.033 86.7765 278.807 86.9165 278.52C87.0632 278.233 87.1365 277.913 87.1365 277.56C87.1365 277.2 87.0632 276.88 86.9165 276.6C86.7765 276.313 86.5832 276.09 86.3365 275.93C86.0899 275.763 85.8065 275.68 85.4865 275.68C85.1665 275.68 84.8832 275.763 84.6365 275.93C84.3899 276.09 84.1932 276.313 84.0465 276.6C83.9065 276.88 83.8365 277.2 83.8365 277.56C83.8365 277.913 83.9065 278.233 84.0465 278.52C84.1932 278.807 84.3899 279.033 84.6365 279.2C84.8832 279.36 85.1665 279.44 85.4865 279.44ZM88.9373 280V275.12H89.6673V275.91C89.854 275.617 90.0773 275.4 90.3373 275.26C90.5973 275.113 90.8906 275.04 91.2173 275.04C91.5706 275.04 91.8773 275.117 92.1373 275.27C92.404 275.417 92.6106 275.627 92.7573 275.9C92.9106 276.167 92.9873 276.48 92.9873 276.84V280H92.2573V277.05C92.2573 276.617 92.1373 276.277 91.8973 276.03C91.664 275.777 91.3473 275.65 90.9473 275.65C90.6806 275.65 90.4373 275.713 90.2173 275.84C89.9973 275.967 89.814 276.153 89.6673 276.4V280H88.9373ZM95.7649 280.1C95.3649 280.1 94.9949 280.04 94.6549 279.92C94.3149 279.793 94.0249 279.613 93.7849 279.38L94.1749 278.9C94.4682 279.113 94.7382 279.27 94.9849 279.37C95.2315 279.463 95.4849 279.51 95.7449 279.51C96.0982 279.51 96.3915 279.427 96.6249 279.26C96.8582 279.093 96.9749 278.88 96.9749 278.62C96.9749 278.42 96.9049 278.263 96.7649 278.15C96.6315 278.037 96.4082 277.95 96.0949 277.89L95.2949 277.75C94.8215 277.663 94.4715 277.517 94.2449 277.31C94.0249 277.103 93.9149 276.823 93.9149 276.47C93.9149 276.19 93.9882 275.943 94.1349 275.73C94.2882 275.517 94.4982 275.35 94.7649 275.23C95.0315 275.103 95.3349 275.04 95.6749 275.04C96.0082 275.04 96.3249 275.09 96.6249 275.19C96.9249 275.283 97.2282 275.437 97.5349 275.65L97.1749 276.16C96.9215 275.98 96.6682 275.85 96.4149 275.77C96.1615 275.683 95.9049 275.64 95.6449 275.64C95.3249 275.64 95.0682 275.71 94.8749 275.85C94.6815 275.99 94.5849 276.18 94.5849 276.42C94.5849 276.62 94.6449 276.773 94.7649 276.88C94.8915 276.987 95.1115 277.067 95.4249 277.12L96.2449 277.27C96.7382 277.357 97.0982 277.507 97.3249 277.72C97.5515 277.933 97.6649 278.22 97.6649 278.58C97.6649 278.867 97.5815 279.127 97.4149 279.36C97.2482 279.587 97.0215 279.767 96.7349 279.9C96.4482 280.033 96.1249 280.1 95.7649 280.1ZM100.339 280.1C99.9187 280.1 99.5987 280 99.3787 279.8C99.1654 279.593 99.0587 279.297 99.0587 278.91V275.72H98.0487V275.12H99.0587V273.78L99.7887 273.61V275.12H101.189V275.72H99.7887V278.72C99.7887 278.98 99.842 279.167 99.9487 279.28C100.062 279.393 100.245 279.45 100.499 279.45C100.625 279.45 100.739 279.44 100.839 279.42C100.939 279.4 101.055 279.367 101.189 279.32V279.97C101.055 280.017 100.915 280.05 100.769 280.07C100.622 280.09 100.479 280.1 100.339 280.1ZM104.16 280.1C103.707 280.1 103.297 279.99 102.93 279.77C102.564 279.543 102.274 279.24 102.06 278.86C101.847 278.473 101.74 278.04 101.74 277.56C101.74 277.08 101.84 276.65 102.04 276.27C102.247 275.89 102.524 275.59 102.87 275.37C103.217 275.15 103.604 275.04 104.03 275.04C104.464 275.04 104.847 275.15 105.18 275.37C105.52 275.583 105.787 275.877 105.98 276.25C106.18 276.617 106.28 277.033 106.28 277.5V277.72H102.45C102.477 278.053 102.567 278.353 102.72 278.62C102.88 278.88 103.087 279.087 103.34 279.24C103.6 279.387 103.884 279.46 104.19 279.46C104.444 279.46 104.687 279.417 104.92 279.33C105.16 279.237 105.364 279.113 105.53 278.96L105.99 279.45C105.71 279.67 105.42 279.833 105.12 279.94C104.82 280.047 104.5 280.1 104.16 280.1ZM102.47 277.2H105.56C105.527 276.907 105.437 276.647 105.29 276.42C105.15 276.187 104.97 276.003 104.75 275.87C104.537 275.737 104.297 275.67 104.03 275.67C103.764 275.67 103.52 275.737 103.3 275.87C103.08 275.997 102.897 276.177 102.75 276.41C102.61 276.637 102.517 276.9 102.47 277.2ZM107.327 280V272.78L108.057 272.63V280H107.327ZM109.353 280V272.78L110.083 272.63V280H109.353ZM112.89 280.09C112.543 280.09 112.237 280.027 111.97 279.9C111.703 279.773 111.493 279.6 111.34 279.38C111.193 279.153 111.12 278.893 111.12 278.6C111.12 278.307 111.197 278.053 111.35 277.84C111.503 277.62 111.717 277.45 111.99 277.33C112.263 277.21 112.583 277.15 112.95 277.15C113.23 277.15 113.493 277.18 113.74 277.24C113.993 277.3 114.227 277.397 114.44 277.53V276.86C114.44 276.46 114.333 276.16 114.12 275.96C113.907 275.753 113.593 275.65 113.18 275.65C112.953 275.65 112.72 275.683 112.48 275.75C112.247 275.817 111.987 275.923 111.7 276.07L111.43 275.51C112.083 275.197 112.697 275.04 113.27 275.04C113.877 275.04 114.343 275.19 114.67 275.49C114.997 275.783 115.16 276.207 115.16 276.76V280H114.44V279.43C114.227 279.65 113.99 279.817 113.73 279.93C113.47 280.037 113.19 280.09 112.89 280.09ZM111.82 278.58C111.82 278.867 111.93 279.097 112.15 279.27C112.377 279.443 112.673 279.53 113.04 279.53C113.313 279.53 113.563 279.483 113.79 279.39C114.023 279.297 114.24 279.157 114.44 278.97V278.03C114.233 277.91 114.02 277.823 113.8 277.77C113.58 277.71 113.333 277.68 113.06 277.68C112.687 277.68 112.387 277.763 112.16 277.93C111.933 278.09 111.82 278.307 111.82 278.58ZM118.157 280.1C117.737 280.1 117.417 280 117.197 279.8C116.984 279.593 116.877 279.297 116.877 278.91V275.72H115.867V275.12H116.877V273.78L117.607 273.61V275.12H119.007V275.72H117.607V278.72C117.607 278.98 117.66 279.167 117.767 279.28C117.88 279.393 118.064 279.45 118.317 279.45C118.444 279.45 118.557 279.44 118.657 279.42C118.757 279.4 118.874 279.367 119.007 279.32V279.97C118.874 280.017 118.734 280.05 118.587 280.07C118.44 280.09 118.297 280.1 118.157 280.1ZM119.866 280V275.12H120.596V280H119.866ZM120.236 273.91C120.09 273.91 119.963 273.86 119.856 273.76C119.756 273.653 119.706 273.53 119.706 273.39C119.706 273.25 119.756 273.13 119.856 273.03C119.963 272.923 120.09 272.87 120.236 272.87C120.383 272.87 120.506 272.923 120.606 273.03C120.713 273.13 120.766 273.25 120.766 273.39C120.766 273.53 120.713 273.653 120.606 273.76C120.506 273.86 120.383 273.91 120.236 273.91ZM124.053 280.08C123.6 280.08 123.193 279.97 122.833 279.75C122.473 279.53 122.19 279.23 121.983 278.85C121.776 278.47 121.673 278.04 121.673 277.56C121.673 277.08 121.776 276.65 121.983 276.27C122.19 275.89 122.473 275.59 122.833 275.37C123.193 275.15 123.6 275.04 124.053 275.04C124.5 275.04 124.9 275.15 125.253 275.37C125.613 275.59 125.896 275.89 126.103 276.27C126.31 276.65 126.413 277.08 126.413 277.56C126.413 278.04 126.31 278.47 126.103 278.85C125.896 279.23 125.613 279.53 125.253 279.75C124.9 279.97 124.5 280.08 124.053 280.08ZM124.043 279.44C124.363 279.44 124.646 279.36 124.893 279.2C125.14 279.033 125.333 278.807 125.473 278.52C125.62 278.233 125.693 277.913 125.693 277.56C125.693 277.2 125.62 276.88 125.473 276.6C125.333 276.313 125.14 276.09 124.893 275.93C124.646 275.763 124.363 275.68 124.043 275.68C123.723 275.68 123.44 275.763 123.193 275.93C122.946 276.09 122.75 276.313 122.603 276.6C122.463 276.88 122.393 277.2 122.393 277.56C122.393 277.913 122.463 278.233 122.603 278.52C122.75 278.807 122.946 279.033 123.193 279.2C123.44 279.36 123.723 279.44 124.043 279.44ZM127.494 280V275.12H128.224V275.91C128.411 275.617 128.634 275.4 128.894 275.26C129.154 275.113 129.447 275.04 129.774 275.04C130.127 275.04 130.434 275.117 130.694 275.27C130.961 275.417 131.167 275.627 131.314 275.9C131.467 276.167 131.544 276.48 131.544 276.84V280H130.814V277.05C130.814 276.617 130.694 276.277 130.454 276.03C130.221 275.777 129.904 275.65 129.504 275.65C129.237 275.65 128.994 275.713 128.774 275.84C128.554 275.967 128.371 276.153 128.224 276.4V280H127.494ZM138.296 280.11C137.796 280.11 137.332 280.017 136.906 279.83C136.479 279.643 136.102 279.387 135.776 279.06C135.456 278.727 135.206 278.343 135.026 277.91C134.846 277.47 134.756 277 134.756 276.5C134.756 276 134.846 275.533 135.026 275.1C135.206 274.66 135.456 274.277 135.776 273.95C136.102 273.617 136.479 273.357 136.906 273.17C137.332 272.983 137.796 272.89 138.296 272.89C138.829 272.89 139.332 272.987 139.806 273.18C140.286 273.373 140.692 273.66 141.026 274.04L140.506 274.56C140.246 274.247 139.919 274.007 139.526 273.84C139.132 273.673 138.722 273.59 138.296 273.59C137.902 273.59 137.539 273.667 137.206 273.82C136.872 273.967 136.579 274.173 136.326 274.44C136.079 274.7 135.886 275.007 135.746 275.36C135.606 275.713 135.536 276.093 135.536 276.5C135.536 276.907 135.606 277.287 135.746 277.64C135.886 277.993 136.079 278.303 136.326 278.57C136.579 278.83 136.872 279.037 137.206 279.19C137.539 279.337 137.902 279.41 138.296 279.41C138.762 279.41 139.179 279.307 139.546 279.1C139.919 278.893 140.219 278.61 140.446 278.25C140.679 277.883 140.816 277.473 140.856 277.02H138.496V276.34H141.636V276.65C141.636 277.137 141.552 277.59 141.386 278.01C141.219 278.423 140.982 278.79 140.676 279.11C140.376 279.423 140.022 279.67 139.616 279.85C139.209 280.023 138.769 280.11 138.296 280.11ZM142.734 280V272.78L143.464 272.63V280H142.734ZM146.92 280.08C146.467 280.08 146.06 279.97 145.7 279.75C145.34 279.53 145.057 279.23 144.85 278.85C144.644 278.47 144.54 278.04 144.54 277.56C144.54 277.08 144.644 276.65 144.85 276.27C145.057 275.89 145.34 275.59 145.7 275.37C146.06 275.15 146.467 275.04 146.92 275.04C147.367 275.04 147.767 275.15 148.12 275.37C148.48 275.59 148.764 275.89 148.97 276.27C149.177 276.65 149.28 277.08 149.28 277.56C149.28 278.04 149.177 278.47 148.97 278.85C148.764 279.23 148.48 279.53 148.12 279.75C147.767 279.97 147.367 280.08 146.92 280.08ZM146.91 279.44C147.23 279.44 147.514 279.36 147.76 279.2C148.007 279.033 148.2 278.807 148.34 278.52C148.487 278.233 148.56 277.913 148.56 277.56C148.56 277.2 148.487 276.88 148.34 276.6C148.2 276.313 148.007 276.09 147.76 275.93C147.514 275.763 147.23 275.68 146.91 275.68C146.59 275.68 146.307 275.763 146.06 275.93C145.814 276.09 145.617 276.313 145.47 276.6C145.33 276.88 145.26 277.2 145.26 277.56C145.26 277.913 145.33 278.233 145.47 278.52C145.617 278.807 145.814 279.033 146.06 279.2C146.307 279.36 146.59 279.44 146.91 279.44ZM150.361 280V272.85L151.091 272.7V275.79C151.278 275.557 151.504 275.377 151.771 275.25C152.038 275.123 152.334 275.06 152.661 275.06C153.088 275.06 153.468 275.173 153.801 275.4C154.141 275.62 154.411 275.92 154.611 276.3C154.811 276.673 154.911 277.093 154.911 277.56C154.911 278.027 154.808 278.45 154.601 278.83C154.401 279.21 154.128 279.513 153.781 279.74C153.441 279.96 153.054 280.07 152.621 280.07C152.314 280.07 152.028 280.01 151.761 279.89C151.501 279.763 151.274 279.587 151.081 279.36V280H150.361ZM152.481 279.44C152.808 279.44 153.098 279.36 153.351 279.2C153.611 279.033 153.814 278.81 153.961 278.53C154.114 278.243 154.191 277.923 154.191 277.57C154.191 277.21 154.114 276.89 153.961 276.61C153.814 276.33 153.611 276.11 153.351 275.95C153.098 275.783 152.808 275.7 152.481 275.7C152.194 275.7 151.928 275.76 151.681 275.88C151.441 275.993 151.244 276.157 151.091 276.37V278.76C151.251 278.973 151.451 279.14 151.691 279.26C151.938 279.38 152.201 279.44 152.481 279.44ZM157.55 280.09C157.203 280.09 156.897 280.027 156.63 279.9C156.363 279.773 156.153 279.6 156 279.38C155.853 279.153 155.78 278.893 155.78 278.6C155.78 278.307 155.857 278.053 156.01 277.84C156.163 277.62 156.377 277.45 156.65 277.33C156.923 277.21 157.243 277.15 157.61 277.15C157.89 277.15 158.153 277.18 158.4 277.24C158.653 277.3 158.887 277.397 159.1 277.53V276.86C159.1 276.46 158.993 276.16 158.78 275.96C158.567 275.753 158.253 275.65 157.84 275.65C157.613 275.65 157.38 275.683 157.14 275.75C156.907 275.817 156.647 275.923 156.36 276.07L156.09 275.51C156.743 275.197 157.357 275.04 157.93 275.04C158.537 275.04 159.003 275.19 159.33 275.49C159.657 275.783 159.82 276.207 159.82 276.76V280H159.1V279.43C158.887 279.65 158.65 279.817 158.39 279.93C158.13 280.037 157.85 280.09 157.55 280.09ZM156.48 278.58C156.48 278.867 156.59 279.097 156.81 279.27C157.037 279.443 157.333 279.53 157.7 279.53C157.973 279.53 158.223 279.483 158.45 279.39C158.683 279.297 158.9 279.157 159.1 278.97V278.03C158.893 277.91 158.68 277.823 158.46 277.77C158.24 277.71 157.993 277.68 157.72 277.68C157.347 277.68 157.047 277.763 156.82 277.93C156.593 278.09 156.48 278.307 156.48 278.58ZM161.104 280V272.78L161.834 272.63V280H161.104Z" fill="white"/>
<defs>
<filter id="filter0_d_1154_17125" x="34.6169" y="42.7361" width="154.396" height="24.52" filterUnits="userSpaceOnUse" color-interpolation-filters="sRGB">
<feFlood flood-opacity="0" result="BackgroundImageFix"/>
<feColorMatrix in="SourceAlpha" type="matrix" values="0 0 0 0 0 0 0 0 0 0 0 0 0 0 0 0 0 0 127 0" result="hardAlpha"/>
<feOffset dx="-1" dy="-1"/>
<feColorMatrix type="matrix" values="0 0 0 0 0 0 0 0 0 0 0 0 0 0 0 0 0 0 0.2 0"/>
<feBlend mode="normal" in2="BackgroundImageFix" result="effect1_dropShadow_1154_17125"/>
<feBlend mode="normal" in="SourceGraphic" in2="effect1_dropShadow_1154_17125" result="shape"/>
</filter>
<linearGradient id="paint0_linear_1154_17125" x1="112" y1="0" x2="112" y2="292.218" gradientUnits="userSpaceOnUse">
<stop stop-color="#5293E5"/>
<stop offset="1" stop-color="#8399E9"/>
</linearGradient>
</defs>
</svg>
