<svg width="224" height="293" viewBox="0 0 224 293" fill="none" xmlns="http://www.w3.org/2000/svg">
<rect width="224" height="292.218" rx="4" fill="url(#paint0_linear_0_8)"/>
<path opacity="0.16" d="M0 4.00001C0 1.79087 1.79086 0 4 0H17.3091V292.218H4C1.79086 292.218 0 290.427 0 288.218V4.00001Z" fill="#06122C"/>
<path d="M156.8 214.836C160.174 214.836 162.947 212.091 162.543 208.742C161.88 203.243 160.323 197.876 157.92 192.856C154.635 185.994 149.855 179.956 143.93 175.185C138.004 170.413 131.085 167.031 123.681 165.285C116.276 163.54 108.575 163.476 101.142 165.098C93.7099 166.721 86.7356 169.989 80.7322 174.661C74.7287 179.333 69.8488 185.292 66.451 192.098C63.0532 198.905 61.2241 206.386 61.098 213.993C61.0058 219.557 61.8267 225.085 63.5154 230.36C64.5442 233.573 68.2088 234.912 71.2758 233.506C74.3428 232.1 75.6375 228.479 74.7312 225.229C73.7327 221.649 73.2525 217.933 73.3145 214.195C73.4103 208.414 74.8005 202.728 77.3828 197.555C79.9651 192.382 83.6739 187.854 88.2365 184.303C92.7991 180.752 98.0996 178.269 103.748 177.036C109.397 175.802 115.25 175.851 120.877 177.177C126.505 178.504 131.763 181.075 136.266 184.701C140.77 188.327 144.403 192.916 146.899 198.131C148.513 201.503 149.625 205.082 150.21 208.752C150.74 212.084 153.426 214.836 156.8 214.836Z" fill="#506FF4"/>
<circle cx="138.473" cy="131.345" r="12.2182" fill="#FFC300"/>
<rect x="65.1636" y="149.673" width="96.7273" height="12.2182" rx="6.10909" fill="#65CED6"/>
<g filter="url(#filter0_d_0_8)">
<path d="M37.1698 62.264C35.9378 62.264 34.7938 62.048 33.7378 61.616C32.6818 61.168 31.7458 60.552 30.9298 59.768C30.1298 58.984 29.5058 58.064 29.0578 57.008C28.6258 55.952 28.4098 54.816 28.4098 53.6C28.4098 52.368 28.6258 51.232 29.0578 50.192C29.5058 49.136 30.1298 48.216 30.9298 47.432C31.7458 46.648 32.6818 46.04 33.7378 45.608C34.7938 45.16 35.9378 44.936 37.1698 44.936C38.0498 44.936 38.9058 45.064 39.7378 45.32C40.5698 45.56 41.3458 45.92 42.0658 46.4C42.7858 46.864 43.3858 47.424 43.8658 48.08L41.4898 50.36C40.9298 49.608 40.2818 49.048 39.5458 48.68C38.8098 48.296 38.0178 48.104 37.1698 48.104C36.4498 48.104 35.7778 48.24 35.1538 48.512C34.5458 48.784 34.0098 49.176 33.5458 49.688C33.0818 50.184 32.7218 50.768 32.4658 51.44C32.2098 52.096 32.0818 52.816 32.0818 53.6C32.0818 54.384 32.2098 55.112 32.4658 55.784C32.7218 56.44 33.0818 57.024 33.5458 57.536C34.0098 58.032 34.5458 58.416 35.1538 58.688C35.7778 58.96 36.4498 59.096 37.1698 59.096C38.0178 59.096 38.8098 58.904 39.5458 58.52C40.2818 58.136 40.9298 57.576 41.4898 56.84L43.8658 59.12C43.3858 59.76 42.7858 60.32 42.0658 60.8C41.3458 61.28 40.5698 61.648 39.7378 61.904C38.9058 62.144 38.0498 62.264 37.1698 62.264ZM51.5466 62.216C50.3466 62.216 49.2746 61.944 48.3306 61.4C47.3866 60.856 46.6346 60.104 46.0746 59.144C45.5306 58.184 45.2586 57.104 45.2586 55.904C45.2586 54.704 45.5306 53.632 46.0746 52.688C46.6346 51.728 47.3866 50.976 48.3306 50.432C49.2746 49.872 50.3386 49.592 51.5226 49.592C52.7226 49.592 53.7866 49.872 54.7146 50.432C55.6586 50.976 56.4026 51.728 56.9466 52.688C57.5066 53.632 57.7866 54.704 57.7866 55.904C57.7866 57.104 57.5066 58.184 56.9466 59.144C56.4026 60.088 55.6586 60.84 54.7146 61.4C53.7866 61.944 52.7306 62.216 51.5466 62.216ZM51.5226 59.408C52.1146 59.408 52.6346 59.264 53.0826 58.976C53.5306 58.672 53.8826 58.256 54.1386 57.728C54.3946 57.184 54.5226 56.576 54.5226 55.904C54.5226 55.216 54.3946 54.616 54.1386 54.104C53.8826 53.576 53.5306 53.16 53.0826 52.856C52.6346 52.552 52.1226 52.4 51.5466 52.4C50.9706 52.4 50.4506 52.552 49.9866 52.856C49.5226 53.16 49.1626 53.576 48.9066 54.104C48.6666 54.632 48.5466 55.232 48.5466 55.904C48.5466 56.576 48.6666 57.184 48.9066 57.728C49.1626 58.256 49.5226 58.672 49.9866 58.976C50.4506 59.264 50.9626 59.408 51.5226 59.408ZM64.4681 62.192C63.6521 62.192 62.9321 62.016 62.3081 61.664C61.7001 61.296 61.2121 60.792 60.8441 60.152C60.4921 59.512 60.3161 58.776 60.3161 57.944V49.784H63.6761V56.96C63.6761 57.744 63.8841 58.376 64.3001 58.856C64.7321 59.32 65.3001 59.552 66.0041 59.552C66.4841 59.552 66.9161 59.448 67.3001 59.24C67.7001 59.032 68.0441 58.728 68.3321 58.328V49.784H71.6681V62H68.3321V60.008C67.8521 60.728 67.2841 61.272 66.6281 61.64C65.9881 62.008 65.2681 62.192 64.4681 62.192ZM74.8262 62V49.784H78.1862V51.776C78.6502 51.056 79.2102 50.512 79.8662 50.144C80.5222 49.776 81.2502 49.592 82.0502 49.592C82.8502 49.592 83.5622 49.776 84.1862 50.144C84.8102 50.496 85.2982 50.992 85.6502 51.632C86.0022 52.272 86.1782 53.008 86.1782 53.84V62H82.8422V54.824C82.8422 54.024 82.6262 53.392 82.1942 52.928C81.7622 52.464 81.1942 52.232 80.4902 52.232C80.0262 52.232 79.5942 52.336 79.1942 52.544C78.8102 52.752 78.4742 53.056 78.1862 53.456V62H74.8262ZM94.5527 62.24C93.2087 62.24 92.1927 61.928 91.5047 61.304C90.8167 60.68 90.4727 59.76 90.4727 58.544V52.4H88.0487V49.784H90.4727V46.4L93.8087 45.704V49.784H97.1447V52.4H93.8087V57.848C93.8087 58.408 93.9367 58.808 94.1927 59.048C94.4487 59.288 94.8727 59.408 95.4647 59.408C95.7047 59.408 95.9367 59.392 96.1607 59.36C96.4007 59.312 96.7047 59.232 97.0727 59.12V61.88C96.7207 61.992 96.3047 62.08 95.8247 62.144C95.3607 62.208 94.9367 62.24 94.5527 62.24ZM99.4121 62V49.784H102.772V52.496C103.14 51.504 103.604 50.768 104.164 50.288C104.724 49.808 105.372 49.568 106.108 49.568C106.364 49.568 106.58 49.584 106.756 49.616C106.932 49.648 107.132 49.72 107.356 49.832V52.736C107.116 52.624 106.852 52.536 106.564 52.472C106.276 52.408 105.98 52.376 105.676 52.376C105.068 52.376 104.508 52.536 103.996 52.856C103.484 53.176 103.076 53.6 102.772 54.128V62H99.4121ZM110.829 67.256C110.349 67.256 109.853 67.192 109.341 67.064V64.232C109.485 64.248 109.653 64.264 109.845 64.28C110.053 64.312 110.253 64.328 110.445 64.328C110.957 64.328 111.365 64.216 111.669 63.992C111.973 63.768 112.229 63.448 112.437 63.032L112.797 62.168L108.237 49.784H111.957L114.693 58.184L117.765 49.784H121.389L115.749 63.704C115.397 64.568 115.005 65.264 114.573 65.792C114.141 66.32 113.621 66.696 113.013 66.92C112.421 67.144 111.693 67.256 110.829 67.256ZM122.89 56.552V53.744H131.506V56.552H122.89ZM134.717 62V45.2H142.589C143.773 45.2 144.797 45.432 145.661 45.896C146.525 46.36 147.189 47 147.653 47.816C148.133 48.616 148.373 49.544 148.373 50.6C148.373 51.608 148.133 52.512 147.653 53.312C147.189 54.112 146.525 54.744 145.661 55.208C144.797 55.656 143.773 55.88 142.589 55.88H138.269V62H134.717ZM138.269 53.024H141.989C142.917 53.024 143.613 52.8 144.077 52.352C144.557 51.888 144.797 51.296 144.797 50.576C144.797 49.856 144.557 49.272 144.077 48.824C143.613 48.376 142.925 48.152 142.013 48.152H138.269V53.024ZM155.869 62.24C154.685 62.24 153.613 61.96 152.653 61.4C151.693 60.84 150.925 60.088 150.349 59.144C149.789 58.184 149.509 57.104 149.509 55.904C149.509 54.704 149.773 53.632 150.301 52.688C150.845 51.744 151.573 50.992 152.485 50.432C153.397 49.872 154.429 49.592 155.581 49.592C156.733 49.592 157.749 49.872 158.629 50.432C159.525 50.976 160.221 51.728 160.717 52.688C161.229 53.648 161.485 54.744 161.485 55.976V56.744H152.797C152.909 57.288 153.109 57.776 153.397 58.208C153.701 58.624 154.077 58.952 154.525 59.192C154.989 59.416 155.485 59.528 156.013 59.528C156.557 59.528 157.061 59.44 157.525 59.264C157.989 59.072 158.373 58.808 158.677 58.472L160.861 60.368C160.093 61.024 159.309 61.504 158.509 61.808C157.725 62.096 156.845 62.24 155.869 62.24ZM152.821 54.776H158.365C158.253 54.264 158.061 53.824 157.789 53.456C157.533 53.072 157.213 52.776 156.829 52.568C156.445 52.344 156.021 52.232 155.557 52.232C155.093 52.232 154.669 52.336 154.285 52.544C153.917 52.752 153.605 53.048 153.349 53.432C153.109 53.8 152.933 54.248 152.821 54.776ZM169.067 62.096C168.059 62.096 167.139 61.816 166.307 61.256C165.475 60.696 164.811 59.952 164.315 59.024C163.835 58.08 163.595 57.032 163.595 55.88C163.595 54.728 163.851 53.688 164.363 52.76C164.875 51.832 165.555 51.088 166.403 50.528C167.267 49.968 168.235 49.688 169.307 49.688C169.979 49.688 170.603 49.824 171.179 50.096C171.755 50.352 172.259 50.728 172.691 51.224V44.84L176.051 44.312V62H172.739V60.416C172.323 60.928 171.787 61.336 171.131 61.64C170.491 61.944 169.803 62.096 169.067 62.096ZM170.123 59.312C170.651 59.312 171.131 59.216 171.563 59.024C171.995 58.816 172.371 58.536 172.691 58.184V53.576C172.371 53.224 171.987 52.952 171.539 52.76C171.107 52.568 170.635 52.472 170.123 52.472C169.515 52.472 168.963 52.624 168.467 52.928C167.987 53.216 167.603 53.616 167.315 54.128C167.027 54.64 166.883 55.232 166.883 55.904C166.883 56.544 167.027 57.128 167.315 57.656C167.603 58.168 167.987 58.576 168.467 58.88C168.963 59.168 169.515 59.312 170.123 59.312ZM179.217 62V49.784H182.553V62H179.217ZM180.897 47.624C180.353 47.624 179.889 47.44 179.505 47.072C179.121 46.688 178.929 46.224 178.929 45.68C178.929 45.136 179.121 44.68 179.505 44.312C179.889 43.928 180.353 43.736 180.897 43.736C181.441 43.736 181.897 43.928 182.265 44.312C182.649 44.696 182.841 45.152 182.841 45.68C182.841 46.208 182.649 46.664 182.265 47.048C181.897 47.432 181.441 47.624 180.897 47.624ZM189.404 62.192C188.572 62.192 187.836 62.04 187.196 61.736C186.556 61.416 186.052 60.984 185.684 60.44C185.332 59.88 185.156 59.232 185.156 58.496C185.156 57.744 185.34 57.104 185.708 56.576C186.092 56.048 186.636 55.64 187.34 55.352C188.044 55.064 188.884 54.92 189.86 54.92C190.372 54.92 190.876 54.976 191.372 55.088C191.868 55.184 192.38 55.352 192.908 55.592V54.44C192.908 53.736 192.692 53.216 192.26 52.88C191.844 52.528 191.196 52.352 190.316 52.352C189.836 52.352 189.308 52.424 188.732 52.568C188.172 52.712 187.532 52.936 186.812 53.24L185.66 50.888C187.548 50.024 189.332 49.592 191.012 49.592C192.66 49.592 193.94 49.992 194.852 50.792C195.764 51.576 196.22 52.688 196.22 54.128V62H192.908V60.848C192.38 61.312 191.828 61.656 191.252 61.88C190.692 62.088 190.076 62.192 189.404 62.192ZM188.252 58.424C188.252 58.904 188.444 59.28 188.828 59.552C189.212 59.808 189.732 59.936 190.388 59.936C190.868 59.936 191.316 59.872 191.732 59.744C192.148 59.6 192.54 59.4 192.908 59.144V57.368C192.524 57.24 192.132 57.144 191.732 57.08C191.332 57 190.916 56.96 190.484 56.96C189.78 56.96 189.228 57.088 188.828 57.344C188.444 57.6 188.252 57.96 188.252 58.424Z" fill="white"/>
</g>
<path d="M63.3097 280V273H66.1397C66.5664 273 66.9364 273.073 67.2497 273.22C67.5697 273.367 67.8164 273.573 67.9897 273.84C68.1631 274.107 68.2497 274.42 68.2497 274.78C68.2497 275.167 68.1364 275.5 67.9097 275.78C67.6897 276.053 67.3897 276.247 67.0097 276.36C67.4764 276.467 67.8431 276.67 68.1097 276.97C68.3831 277.263 68.5197 277.627 68.5197 278.06C68.5197 278.447 68.4264 278.787 68.2397 279.08C68.0531 279.373 67.7897 279.6 67.4497 279.76C67.1097 279.92 66.7097 280 66.2497 280H63.3097ZM64.0797 276.06H66.0797C66.5064 276.06 66.8464 275.953 67.0997 275.74C67.3531 275.52 67.4797 275.227 67.4797 274.86C67.4797 274.493 67.3531 274.203 67.0997 273.99C66.8464 273.77 66.5064 273.66 66.0797 273.66H64.0797V276.06ZM64.0797 279.34H66.1697C66.6431 279.34 67.0231 279.22 67.3097 278.98C67.5964 278.733 67.7397 278.41 67.7397 278.01C67.7397 277.61 67.5964 277.29 67.3097 277.05C67.0297 276.81 66.6497 276.69 66.1697 276.69H64.0797V279.34ZM69.7227 282.19C69.5694 282.19 69.4127 282.167 69.2527 282.12V281.47C69.3194 281.483 69.3894 281.493 69.4627 281.5C69.536 281.507 69.5994 281.51 69.6527 281.51C69.8394 281.51 69.9927 281.46 70.1127 281.36C70.2394 281.26 70.346 281.103 70.4327 280.89L70.7927 280L68.9127 275.12H69.7227L71.2027 279.13L72.7727 275.12H73.5827L71.1227 281.11C71.016 281.37 70.8994 281.58 70.7727 281.74C70.646 281.9 70.4994 282.013 70.3327 282.08C70.166 282.153 69.9627 282.19 69.7227 282.19ZM79.7971 280.11C79.2971 280.11 78.8305 280.02 78.3971 279.84C77.9705 279.653 77.5938 279.397 77.2671 279.07C76.9405 278.737 76.6871 278.353 76.5071 277.92C76.3271 277.48 76.2371 277.007 76.2371 276.5C76.2371 275.993 76.3271 275.523 76.5071 275.09C76.6871 274.65 76.9405 274.267 77.2671 273.94C77.5938 273.607 77.9705 273.35 78.3971 273.17C78.8305 272.983 79.2971 272.89 79.7971 272.89C80.1438 272.89 80.4738 272.937 80.7871 273.03C81.1071 273.117 81.4071 273.247 81.6871 273.42C81.9671 273.587 82.2171 273.793 82.4371 274.04L81.9271 274.57C81.6671 274.257 81.3471 274.017 80.9671 273.85C80.5938 273.677 80.2038 273.59 79.7971 273.59C79.4038 273.59 79.0371 273.663 78.6971 273.81C78.3571 273.957 78.0605 274.163 77.8071 274.43C77.5605 274.697 77.3671 275.007 77.2271 275.36C77.0871 275.707 77.0171 276.087 77.0171 276.5C77.0171 276.907 77.0871 277.287 77.2271 277.64C77.3671 277.993 77.5605 278.303 77.8071 278.57C78.0605 278.837 78.3571 279.043 78.6971 279.19C79.0371 279.337 79.4038 279.41 79.7971 279.41C80.2038 279.41 80.5938 279.323 80.9671 279.15C81.3471 278.977 81.6671 278.737 81.9271 278.43L82.4371 278.96C82.2171 279.207 81.9671 279.417 81.6871 279.59C81.4071 279.757 81.1071 279.887 80.7871 279.98C80.4738 280.067 80.1438 280.11 79.7971 280.11ZM85.4965 280.08C85.0432 280.08 84.6365 279.97 84.2765 279.75C83.9165 279.53 83.6332 279.23 83.4265 278.85C83.2199 278.47 83.1165 278.04 83.1165 277.56C83.1165 277.08 83.2199 276.65 83.4265 276.27C83.6332 275.89 83.9165 275.59 84.2765 275.37C84.6365 275.15 85.0432 275.04 85.4965 275.04C85.9432 275.04 86.3432 275.15 86.6965 275.37C87.0565 275.59 87.3399 275.89 87.5465 276.27C87.7532 276.65 87.8565 277.08 87.8565 277.56C87.8565 278.04 87.7532 278.47 87.5465 278.85C87.3399 279.23 87.0565 279.53 86.6965 279.75C86.3432 279.97 85.9432 280.08 85.4965 280.08ZM85.4865 279.44C85.8065 279.44 86.0899 279.36 86.3365 279.2C86.5832 279.033 86.7765 278.807 86.9165 278.52C87.0632 278.233 87.1365 277.913 87.1365 277.56C87.1365 277.2 87.0632 276.88 86.9165 276.6C86.7765 276.313 86.5832 276.09 86.3365 275.93C86.0899 275.763 85.8065 275.68 85.4865 275.68C85.1665 275.68 84.8832 275.763 84.6365 275.93C84.3899 276.09 84.1932 276.313 84.0465 276.6C83.9065 276.88 83.8365 277.2 83.8365 277.56C83.8365 277.913 83.9065 278.233 84.0465 278.52C84.1932 278.807 84.3899 279.033 84.6365 279.2C84.8832 279.36 85.1665 279.44 85.4865 279.44ZM88.9373 280V275.12H89.6673V275.91C89.854 275.617 90.0773 275.4 90.3373 275.26C90.5973 275.113 90.8906 275.04 91.2173 275.04C91.5706 275.04 91.8773 275.117 92.1373 275.27C92.404 275.417 92.6106 275.627 92.7573 275.9C92.9106 276.167 92.9873 276.48 92.9873 276.84V280H92.2573V277.05C92.2573 276.617 92.1373 276.277 91.8973 276.03C91.664 275.777 91.3473 275.65 90.9473 275.65C90.6806 275.65 90.4373 275.713 90.2173 275.84C89.9973 275.967 89.814 276.153 89.6673 276.4V280H88.9373ZM95.7649 280.1C95.3649 280.1 94.9949 280.04 94.6549 279.92C94.3149 279.793 94.0249 279.613 93.7849 279.38L94.1749 278.9C94.4682 279.113 94.7382 279.27 94.9849 279.37C95.2315 279.463 95.4849 279.51 95.7449 279.51C96.0982 279.51 96.3915 279.427 96.6249 279.26C96.8582 279.093 96.9749 278.88 96.9749 278.62C96.9749 278.42 96.9049 278.263 96.7649 278.15C96.6315 278.037 96.4082 277.95 96.0949 277.89L95.2949 277.75C94.8215 277.663 94.4715 277.517 94.2449 277.31C94.0249 277.103 93.9149 276.823 93.9149 276.47C93.9149 276.19 93.9882 275.943 94.1349 275.73C94.2882 275.517 94.4982 275.35 94.7649 275.23C95.0315 275.103 95.3349 275.04 95.6749 275.04C96.0082 275.04 96.3249 275.09 96.6249 275.19C96.9249 275.283 97.2282 275.437 97.5349 275.65L97.1749 276.16C96.9215 275.98 96.6682 275.85 96.4149 275.77C96.1615 275.683 95.9049 275.64 95.6449 275.64C95.3249 275.64 95.0682 275.71 94.8749 275.85C94.6815 275.99 94.5849 276.18 94.5849 276.42C94.5849 276.62 94.6449 276.773 94.7649 276.88C94.8915 276.987 95.1115 277.067 95.4249 277.12L96.2449 277.27C96.7382 277.357 97.0982 277.507 97.3249 277.72C97.5515 277.933 97.6649 278.22 97.6649 278.58C97.6649 278.867 97.5815 279.127 97.4149 279.36C97.2482 279.587 97.0215 279.767 96.7349 279.9C96.4482 280.033 96.1249 280.1 95.7649 280.1ZM100.339 280.1C99.9187 280.1 99.5987 280 99.3787 279.8C99.1654 279.593 99.0587 279.297 99.0587 278.91V275.72H98.0487V275.12H99.0587V273.78L99.7887 273.61V275.12H101.189V275.72H99.7887V278.72C99.7887 278.98 99.842 279.167 99.9487 279.28C100.062 279.393 100.245 279.45 100.499 279.45C100.625 279.45 100.739 279.44 100.839 279.42C100.939 279.4 101.055 279.367 101.189 279.32V279.97C101.055 280.017 100.915 280.05 100.769 280.07C100.622 280.09 100.479 280.1 100.339 280.1ZM104.16 280.1C103.707 280.1 103.297 279.99 102.93 279.77C102.564 279.543 102.274 279.24 102.06 278.86C101.847 278.473 101.74 278.04 101.74 277.56C101.74 277.08 101.84 276.65 102.04 276.27C102.247 275.89 102.524 275.59 102.87 275.37C103.217 275.15 103.604 275.04 104.03 275.04C104.464 275.04 104.847 275.15 105.18 275.37C105.52 275.583 105.787 275.877 105.98 276.25C106.18 276.617 106.28 277.033 106.28 277.5V277.72H102.45C102.477 278.053 102.567 278.353 102.72 278.62C102.88 278.88 103.087 279.087 103.34 279.24C103.6 279.387 103.884 279.46 104.19 279.46C104.444 279.46 104.687 279.417 104.92 279.33C105.16 279.237 105.364 279.113 105.53 278.96L105.99 279.45C105.71 279.67 105.42 279.833 105.12 279.94C104.82 280.047 104.5 280.1 104.16 280.1ZM102.47 277.2H105.56C105.527 276.907 105.437 276.647 105.29 276.42C105.15 276.187 104.97 276.003 104.75 275.87C104.537 275.737 104.297 275.67 104.03 275.67C103.764 275.67 103.52 275.737 103.3 275.87C103.08 275.997 102.897 276.177 102.75 276.41C102.61 276.637 102.517 276.9 102.47 277.2ZM107.327 280V272.78L108.057 272.63V280H107.327ZM109.353 280V272.78L110.083 272.63V280H109.353ZM112.89 280.09C112.543 280.09 112.237 280.027 111.97 279.9C111.703 279.773 111.493 279.6 111.34 279.38C111.193 279.153 111.12 278.893 111.12 278.6C111.12 278.307 111.197 278.053 111.35 277.84C111.503 277.62 111.717 277.45 111.99 277.33C112.263 277.21 112.583 277.15 112.95 277.15C113.23 277.15 113.493 277.18 113.74 277.24C113.993 277.3 114.227 277.397 114.44 277.53V276.86C114.44 276.46 114.333 276.16 114.12 275.96C113.907 275.753 113.593 275.65 113.18 275.65C112.953 275.65 112.72 275.683 112.48 275.75C112.247 275.817 111.987 275.923 111.7 276.07L111.43 275.51C112.083 275.197 112.697 275.04 113.27 275.04C113.877 275.04 114.343 275.19 114.67 275.49C114.997 275.783 115.16 276.207 115.16 276.76V280H114.44V279.43C114.227 279.65 113.99 279.817 113.73 279.93C113.47 280.037 113.19 280.09 112.89 280.09ZM111.82 278.58C111.82 278.867 111.93 279.097 112.15 279.27C112.377 279.443 112.673 279.53 113.04 279.53C113.313 279.53 113.563 279.483 113.79 279.39C114.023 279.297 114.24 279.157 114.44 278.97V278.03C114.233 277.91 114.02 277.823 113.8 277.77C113.58 277.71 113.333 277.68 113.06 277.68C112.687 277.68 112.387 277.763 112.16 277.93C111.933 278.09 111.82 278.307 111.82 278.58ZM118.157 280.1C117.737 280.1 117.417 280 117.197 279.8C116.984 279.593 116.877 279.297 116.877 278.91V275.72H115.867V275.12H116.877V273.78L117.607 273.61V275.12H119.007V275.72H117.607V278.72C117.607 278.98 117.66 279.167 117.767 279.28C117.88 279.393 118.064 279.45 118.317 279.45C118.444 279.45 118.557 279.44 118.657 279.42C118.757 279.4 118.874 279.367 119.007 279.32V279.97C118.874 280.017 118.734 280.05 118.587 280.07C118.44 280.09 118.297 280.1 118.157 280.1ZM119.866 280V275.12H120.596V280H119.866ZM120.236 273.91C120.09 273.91 119.963 273.86 119.856 273.76C119.756 273.653 119.706 273.53 119.706 273.39C119.706 273.25 119.756 273.13 119.856 273.03C119.963 272.923 120.09 272.87 120.236 272.87C120.383 272.87 120.506 272.923 120.606 273.03C120.713 273.13 120.766 273.25 120.766 273.39C120.766 273.53 120.713 273.653 120.606 273.76C120.506 273.86 120.383 273.91 120.236 273.91ZM124.053 280.08C123.6 280.08 123.193 279.97 122.833 279.75C122.473 279.53 122.19 279.23 121.983 278.85C121.776 278.47 121.673 278.04 121.673 277.56C121.673 277.08 121.776 276.65 121.983 276.27C122.19 275.89 122.473 275.59 122.833 275.37C123.193 275.15 123.6 275.04 124.053 275.04C124.5 275.04 124.9 275.15 125.253 275.37C125.613 275.59 125.896 275.89 126.103 276.27C126.31 276.65 126.413 277.08 126.413 277.56C126.413 278.04 126.31 278.47 126.103 278.85C125.896 279.23 125.613 279.53 125.253 279.75C124.9 279.97 124.5 280.08 124.053 280.08ZM124.043 279.44C124.363 279.44 124.646 279.36 124.893 279.2C125.14 279.033 125.333 278.807 125.473 278.52C125.62 278.233 125.693 277.913 125.693 277.56C125.693 277.2 125.62 276.88 125.473 276.6C125.333 276.313 125.14 276.09 124.893 275.93C124.646 275.763 124.363 275.68 124.043 275.68C123.723 275.68 123.44 275.763 123.193 275.93C122.946 276.09 122.75 276.313 122.603 276.6C122.463 276.88 122.393 277.2 122.393 277.56C122.393 277.913 122.463 278.233 122.603 278.52C122.75 278.807 122.946 279.033 123.193 279.2C123.44 279.36 123.723 279.44 124.043 279.44ZM127.494 280V275.12H128.224V275.91C128.411 275.617 128.634 275.4 128.894 275.26C129.154 275.113 129.447 275.04 129.774 275.04C130.127 275.04 130.434 275.117 130.694 275.27C130.961 275.417 131.167 275.627 131.314 275.9C131.467 276.167 131.544 276.48 131.544 276.84V280H130.814V277.05C130.814 276.617 130.694 276.277 130.454 276.03C130.221 275.777 129.904 275.65 129.504 275.65C129.237 275.65 128.994 275.713 128.774 275.84C128.554 275.967 128.371 276.153 128.224 276.4V280H127.494ZM138.296 280.11C137.796 280.11 137.332 280.017 136.906 279.83C136.479 279.643 136.102 279.387 135.776 279.06C135.456 278.727 135.206 278.343 135.026 277.91C134.846 277.47 134.756 277 134.756 276.5C134.756 276 134.846 275.533 135.026 275.1C135.206 274.66 135.456 274.277 135.776 273.95C136.102 273.617 136.479 273.357 136.906 273.17C137.332 272.983 137.796 272.89 138.296 272.89C138.829 272.89 139.332 272.987 139.806 273.18C140.286 273.373 140.692 273.66 141.026 274.04L140.506 274.56C140.246 274.247 139.919 274.007 139.526 273.84C139.132 273.673 138.722 273.59 138.296 273.59C137.902 273.59 137.539 273.667 137.206 273.82C136.872 273.967 136.579 274.173 136.326 274.44C136.079 274.7 135.886 275.007 135.746 275.36C135.606 275.713 135.536 276.093 135.536 276.5C135.536 276.907 135.606 277.287 135.746 277.64C135.886 277.993 136.079 278.303 136.326 278.57C136.579 278.83 136.872 279.037 137.206 279.19C137.539 279.337 137.902 279.41 138.296 279.41C138.762 279.41 139.179 279.307 139.546 279.1C139.919 278.893 140.219 278.61 140.446 278.25C140.679 277.883 140.816 277.473 140.856 277.02H138.496V276.34H141.636V276.65C141.636 277.137 141.552 277.59 141.386 278.01C141.219 278.423 140.982 278.79 140.676 279.11C140.376 279.423 140.022 279.67 139.616 279.85C139.209 280.023 138.769 280.11 138.296 280.11ZM142.734 280V272.78L143.464 272.63V280H142.734ZM146.92 280.08C146.467 280.08 146.06 279.97 145.7 279.75C145.34 279.53 145.057 279.23 144.85 278.85C144.644 278.47 144.54 278.04 144.54 277.56C144.54 277.08 144.644 276.65 144.85 276.27C145.057 275.89 145.34 275.59 145.7 275.37C146.06 275.15 146.467 275.04 146.92 275.04C147.367 275.04 147.767 275.15 148.12 275.37C148.48 275.59 148.764 275.89 148.97 276.27C149.177 276.65 149.28 277.08 149.28 277.56C149.28 278.04 149.177 278.47 148.97 278.85C148.764 279.23 148.48 279.53 148.12 279.75C147.767 279.97 147.367 280.08 146.92 280.08ZM146.91 279.44C147.23 279.44 147.514 279.36 147.76 279.2C148.007 279.033 148.2 278.807 148.34 278.52C148.487 278.233 148.56 277.913 148.56 277.56C148.56 277.2 148.487 276.88 148.34 276.6C148.2 276.313 148.007 276.09 147.76 275.93C147.514 275.763 147.23 275.68 146.91 275.68C146.59 275.68 146.307 275.763 146.06 275.93C145.814 276.09 145.617 276.313 145.47 276.6C145.33 276.88 145.26 277.2 145.26 277.56C145.26 277.913 145.33 278.233 145.47 278.52C145.617 278.807 145.814 279.033 146.06 279.2C146.307 279.36 146.59 279.44 146.91 279.44ZM150.361 280V272.85L151.091 272.7V275.79C151.278 275.557 151.504 275.377 151.771 275.25C152.038 275.123 152.334 275.06 152.661 275.06C153.088 275.06 153.468 275.173 153.801 275.4C154.141 275.62 154.411 275.92 154.611 276.3C154.811 276.673 154.911 277.093 154.911 277.56C154.911 278.027 154.808 278.45 154.601 278.83C154.401 279.21 154.128 279.513 153.781 279.74C153.441 279.96 153.054 280.07 152.621 280.07C152.314 280.07 152.028 280.01 151.761 279.89C151.501 279.763 151.274 279.587 151.081 279.36V280H150.361ZM152.481 279.44C152.808 279.44 153.098 279.36 153.351 279.2C153.611 279.033 153.814 278.81 153.961 278.53C154.114 278.243 154.191 277.923 154.191 277.57C154.191 277.21 154.114 276.89 153.961 276.61C153.814 276.33 153.611 276.11 153.351 275.95C153.098 275.783 152.808 275.7 152.481 275.7C152.194 275.7 151.928 275.76 151.681 275.88C151.441 275.993 151.244 276.157 151.091 276.37V278.76C151.251 278.973 151.451 279.14 151.691 279.26C151.938 279.38 152.201 279.44 152.481 279.44ZM157.55 280.09C157.203 280.09 156.897 280.027 156.63 279.9C156.363 279.773 156.153 279.6 156 279.38C155.853 279.153 155.78 278.893 155.78 278.6C155.78 278.307 155.857 278.053 156.01 277.84C156.163 277.62 156.377 277.45 156.65 277.33C156.923 277.21 157.243 277.15 157.61 277.15C157.89 277.15 158.153 277.18 158.4 277.24C158.653 277.3 158.887 277.397 159.1 277.53V276.86C159.1 276.46 158.993 276.16 158.78 275.96C158.567 275.753 158.253 275.65 157.84 275.65C157.613 275.65 157.38 275.683 157.14 275.75C156.907 275.817 156.647 275.923 156.36 276.07L156.09 275.51C156.743 275.197 157.357 275.04 157.93 275.04C158.537 275.04 159.003 275.19 159.33 275.49C159.657 275.783 159.82 276.207 159.82 276.76V280H159.1V279.43C158.887 279.65 158.65 279.817 158.39 279.93C158.13 280.037 157.85 280.09 157.55 280.09ZM156.48 278.58C156.48 278.867 156.59 279.097 156.81 279.27C157.037 279.443 157.333 279.53 157.7 279.53C157.973 279.53 158.223 279.483 158.45 279.39C158.683 279.297 158.9 279.157 159.1 278.97V278.03C158.893 277.91 158.68 277.823 158.46 277.77C158.24 277.71 157.993 277.68 157.72 277.68C157.347 277.68 157.047 277.763 156.82 277.93C156.593 278.09 156.48 278.307 156.48 278.58ZM161.104 280V272.78L161.834 272.63V280H161.104Z" fill="white"/>
<defs>
<filter id="filter0_d_0_8" x="27.4098" y="42.736" width="168.811" height="24.52" filterUnits="userSpaceOnUse" color-interpolation-filters="sRGB">
<feFlood flood-opacity="0" result="BackgroundImageFix"/>
<feColorMatrix in="SourceAlpha" type="matrix" values="0 0 0 0 0 0 0 0 0 0 0 0 0 0 0 0 0 0 127 0" result="hardAlpha"/>
<feOffset dx="-1" dy="-1"/>
<feColorMatrix type="matrix" values="0 0 0 0 0 0 0 0 0 0 0 0 0 0 0 0 0 0 0.2 0"/>
<feBlend mode="normal" in2="BackgroundImageFix" result="effect1_dropShadow_0_8"/>
<feBlend mode="normal" in="SourceGraphic" in2="effect1_dropShadow_0_8" result="shape"/>
</filter>
<linearGradient id="paint0_linear_0_8" x1="112" y1="0" x2="112" y2="292.218" gradientUnits="userSpaceOnUse">
<stop stop-color="#5293E5"/>
<stop offset="1" stop-color="#8399E9"/>
</linearGradient>
</defs>
</svg>
