<svg width="1440" height="500" viewBox="0 0 1440 500" fill="none" xmlns="http://www.w3.org/2000/svg">
<g clip-path="url(#clip0_53_1515)">
<rect width="1440" height="500" fill="#222E64"/>
<circle cx="32" cy="465" r="50" fill="white" fill-opacity="0.06"/>
<circle cx="1425" cy="400" r="120" stroke="white" stroke-opacity="0.06" stroke-width="60"/>
<rect x="1300.88" y="150" width="12" height="100" rx="6" transform="rotate(15 1300.88 150)" fill="white" fill-opacity="0.06"/>
<path d="M1407.4 400C1409.39 400 1411.02 398.383 1410.78 396.409C1410.39 393.169 1409.47 390.006 1408.06 387.048C1406.12 383.004 1403.31 379.446 1399.81 376.634C1396.32 373.822 1392.25 371.829 1387.88 370.8C1383.52 369.772 1378.98 369.734 1374.6 370.69C1370.22 371.646 1366.11 373.572 1362.57 376.325C1359.04 379.079 1356.16 382.59 1354.16 386.601C1352.16 390.612 1351.08 395.02 1351 399.503C1350.95 402.782 1351.43 406.04 1352.43 409.148C1353.03 411.041 1355.19 411.831 1357 411.002C1358.81 410.173 1359.57 408.04 1359.04 406.125C1358.45 404.015 1358.17 401.825 1358.2 399.622C1358.26 396.216 1359.08 392.865 1360.6 389.817C1362.12 386.768 1364.31 384.1 1367 382.007C1369.68 379.915 1372.81 378.451 1376.14 377.725C1379.46 376.998 1382.91 377.027 1386.23 377.808C1389.55 378.59 1392.65 380.105 1395.3 382.242C1397.95 384.379 1400.09 387.083 1401.56 390.156C1402.52 392.143 1403.17 394.252 1403.52 396.415C1403.83 398.378 1405.41 400 1407.4 400Z" fill="#8399E9"/>
<circle cx="93.999" cy="330" r="12" fill="#FFC300"/>
<rect x="76.4844" y="365" width="95" height="12" rx="6" transform="rotate(45 76.4844 365)" fill="#65CED6"/>
</g>
<defs>
<clipPath id="clip0_53_1515">
<rect width="1440" height="500" fill="white"/>
</clipPath>
</defs>
</svg>
