<svg width="1300" height="890" viewBox="0 0 1300 890" fill="none" xmlns="http://www.w3.org/2000/svg">
<circle cx="272" cy="183" r="12" fill="#C19CFC"/>
<path d="M1296 861.836C1296 874.753 1285.32 885.345 1272 885.345C1258.68 885.345 1248 874.753 1248 861.836C1248 848.919 1258.68 838.327 1272 838.327C1285.32 838.327 1296 848.919 1296 861.836Z" stroke="#E40173" stroke-width="8"/>
<path d="M1142.11 344.643L1162.6 339.152L1157.11 318.662L1177.6 313.171L1172.11 292.681L1192.6 287.191" stroke="#00A7E5" stroke-width="8" stroke-linecap="round" stroke-linejoin="round"/>
<path d="M1042.94 134.78C1046.52 129.653 1051.3 125.477 1056.86 122.611C1062.42 119.746 1068.6 118.278 1074.85 118.335C1081.11 118.392 1087.25 119.972 1092.76 122.938C1098.27 125.904 1102.97 130.168 1106.45 135.359" stroke="#E2A21F" stroke-width="8"/>
<rect x="86" y="784" width="40" height="40" fill="#D9DBE9"/>
<path d="M284 0.333252L304.785 36.3333H263.215L284 0.333252Z" fill="#00CC67"/>
<path d="M28 234L52.2487 248V276L28 290L3.75129 276V248L28 234Z" fill="#D9DBE9"/>
</svg>
